<svg id="Layer_1" data-name="Layer 1" xmlns="http://www.w3.org/2000/svg" viewBox="0 0 512 512"><defs><style>.cls-1{fill:#ffb85a;}.cls-2{opacity:0.2;}.cls-3{fill:#fff;}.cls-4{fill:#2b374f;}</style></defs><title>leaf-filled</title><polygon class="cls-1" points="492.8 342.4 390.4 361.6 435.2 444.8 256 393.6 76.8 444.8 121.6 361.6 19.2 342.4 64 297.6 12.8 214.4 96 214.4 89.6 156.8 185.6 233.6 147.2 86.4 211.2 105.6 256 16 300.8 105.6 364.8 86.4 326.4 233.6 422.4 156.8 416 214.4 499.2 214.4 448 297.6 492.8 342.4"/><g class="cls-2"><polygon points="492.8 342.4 390.4 361.6 435.2 444.8 256 393.6 256 16 300.8 105.6 364.8 86.4 326.4 233.6 422.4 156.8 416 214.4 499.2 214.4 448 297.6 492.8 342.4"/></g><line class="cls-3" x1="256" y1="342.4" x2="134.4" y2="291.2"/><line class="cls-3" x1="256" y1="208" x2="224" y2="176"/><line class="cls-3" x1="256" y1="208" x2="288" y2="176"/><line class="cls-3" x1="256" y1="342.4" x2="377.6" y2="291.2"/><path class="cls-4" d="M510.38,208.16a12.8,12.8,0,0,0-11.18-6.56H430.3l4.82-43.39a12.8,12.8,0,0,0-20.72-11.41l-65.88,52.71L377.18,89.63a12.8,12.8,0,0,0-16.06-15.49L307.43,90.25l-40-80a12.8,12.8,0,0,0-22.9,0l-40,80L150.88,74.14a12.8,12.8,0,0,0-16.06,15.49l28.66,109.88L97.6,146.81a12.8,12.8,0,0,0-20.72,11.41L81.7,201.6H12.8A12.8,12.8,0,0,0,1.9,221.11L47.8,295.7,10.15,333.35A12.8,12.8,0,0,0,16.84,355L102,371,65.53,438.73a12.8,12.8,0,0,0,14.78,18.38L243.2,410.57V496a12.8,12.8,0,1,0,25.6,0V410.57l162.88,46.54a12.8,12.8,0,0,0,14.78-18.37L410,371l85.18-16a12.8,12.8,0,0,0,6.69-21.63L464.2,295.7l45.9-74.59A12.81,12.81,0,0,0,510.38,208.16ZM437.1,290.89A12.8,12.8,0,0,0,439,306.65l27.64,27.64L388,349a12.8,12.8,0,0,0-8.91,18.65l30.42,56.49L268.8,383.95v-33L382.57,303a12.8,12.8,0,1,0-9.93-23.59L268.8,323.12V213.3L297.05,185a12.8,12.8,0,0,0-18.1-18.1L268.8,177.1V144a12.8,12.8,0,1,0-25.6,0v33.1L233,166.95a12.8,12.8,0,1,0-18.1,18.1L243.2,213.3V323.12L139.37,279.4A12.8,12.8,0,1,0,129.43,303L243.2,350.9v33L102.45,424.16l30.42-56.49A12.8,12.8,0,0,0,124,349L45.41,334.29,73,306.65a12.8,12.8,0,0,0,1.85-15.76L35.71,227.2H96A12.8,12.8,0,0,0,108.72,213l-3-26.89,71.87,57.49A12.8,12.8,0,0,0,198,230.37L165.33,105.2l42.19,12.66a12.81,12.81,0,0,0,15.13-6.53L256,44.62l33.35,66.7a12.81,12.81,0,0,0,15.13,6.53l42.19-12.66L314,230.37a12.8,12.8,0,0,0,20.38,13.23l71.87-57.49-3,26.89A12.8,12.8,0,0,0,416,227.2h60.29Z"/></svg>